<svg width="42" height="65" viewBox="0 0 42 65" fill="none" xmlns="http://www.w3.org/2000/svg">
<mask id="path-1-outside-1" maskUnits="userSpaceOnUse" x="0" y="0" width="42" height="65" fill="black">
<rect fill="white" width="42" height="65"/>
<path fill-rule="evenodd" clip-rule="evenodd" d="M39.3984 36.708C39.7216 36.5783 40.0881 36.6176 40.3765 36.8128C40.6644 37.008 40.8367 37.3331 40.8367 37.6809V40.4548C40.841 41.7417 40.0577 42.9002 38.8617 43.3754L35.5772 44.689L36.0144 49.9076C36.4269 54.8452 33.622 59.4895 29.0597 61.4225L25.4577 62.9604C22.5556 64.1932 19.2769 64.1932 16.3749 62.9604L12.7728 61.4225C8.2123 59.488 5.40918 54.8442 5.82235 49.9076L6.26161 44.689L2.97717 43.3754C1.78037 42.9009 0.995953 41.7422 1.00002 40.4548V37.6809C1.00041 37.5472 1.02636 37.4148 1.07654 37.2909C1.29368 36.7541 1.90473 36.4951 2.44148 36.7122L6.78682 38.4503L7.29002 32.4392L5.78566 14.5127C5.37917 9.8181 7.89609 5.35534 12.1239 3.27453L12.951 2.86253C17.9723 0.379157 23.8645 0.379157 28.8857 2.86253L29.7139 3.27453C33.9401 5.35665 36.4552 9.81901 36.0479 14.5127L34.5467 32.4392L35.0531 38.4461L39.3984 36.708ZM3.75609 41.4276L6.24169 42.4225V40.4873L3.09668 39.2292V40.4548C3.09524 40.8839 3.35693 41.27 3.75609 41.4276ZM32.45 32.4392L33.9596 14.3334C34.29 10.4977 32.2329 6.85223 28.7788 5.15209L27.9516 4.7401C23.5189 2.54685 18.3168 2.54685 13.884 4.7401L13.0559 5.15209C9.60199 6.85249 7.54542 10.4979 7.87604 14.3334L9.38669 32.4392L7.91902 50.0816C7.58133 54.1165 9.87181 57.9124 13.5989 59.4946L17.201 61.0315C19.5764 62.041 22.2604 62.041 24.6358 61.0315L28.2378 59.4946C31.9664 57.9158 34.2601 54.122 33.9261 50.0868L32.45 32.4392ZM38.0807 41.4276C38.4798 41.2701 38.7415 40.8839 38.7401 40.4548V39.2292L35.5951 40.4873V42.4225L38.0807 41.4276ZM29.5711 11.9338L27.5384 10.8047C23.4263 8.50375 18.4142 8.50375 14.3021 10.8047L12.2673 11.9338C11.1066 12.5819 10.4774 13.8888 10.6948 15.2004L11.6436 20.9075H30.1928L31.1436 15.2014C31.3614 13.8896 30.7323 12.582 29.5711 11.9338ZM29.0753 14.8565L28.4169 18.8108H13.4194L12.76 14.8555C12.6869 14.4178 12.8974 13.9816 13.2853 13.7663L15.318 12.6372C18.7977 10.6904 23.0387 10.6904 26.5184 12.6372L28.5511 13.7663C28.9375 13.9834 29.1469 14.419 29.0753 14.8565ZM31.2758 43.6008L30.2537 33.4739H11.5881L10.5712 43.6019C10.453 44.7629 10.9888 45.8937 11.9623 46.5372L12.2265 46.7123C17.4938 50.2206 24.3533 50.2206 29.6205 46.7123L29.8857 46.5361C30.8591 45.8926 31.3947 44.7617 31.2758 43.6008ZM28.7221 44.7886L28.4568 44.9647C23.8912 48.0059 17.9453 48.0059 13.3797 44.9647L13.1155 44.7896C12.7925 44.5746 12.6145 44.1988 12.6532 43.8126L13.4803 35.5706H28.3614L29.1886 43.8136C29.2254 44.1999 29.046 44.575 28.7221 44.7886ZM10.6069 50.8363L12.3514 49.6733L16.5446 55.9628L14.8002 57.1258L10.6069 50.8363ZM29.4901 49.6968L25.2948 55.9864L27.0392 57.15L31.2345 50.8604L29.4901 49.6968Z"/>
</mask>
<path fill-rule="evenodd" clip-rule="evenodd" d="M39.3984 36.708C39.7216 36.5783 40.0881 36.6176 40.3765 36.8128C40.6644 37.008 40.8367 37.3331 40.8367 37.6809V40.4548C40.841 41.7417 40.0577 42.9002 38.8617 43.3754L35.5772 44.689L36.0144 49.9076C36.4269 54.8452 33.622 59.4895 29.0597 61.4225L25.4577 62.9604C22.5556 64.1932 19.2769 64.1932 16.3749 62.9604L12.7728 61.4225C8.2123 59.488 5.40918 54.8442 5.82235 49.9076L6.26161 44.689L2.97717 43.3754C1.78037 42.9009 0.995953 41.7422 1.00002 40.4548V37.6809C1.00041 37.5472 1.02636 37.4148 1.07654 37.2909C1.29368 36.7541 1.90473 36.4951 2.44148 36.7122L6.78682 38.4503L7.29002 32.4392L5.78566 14.5127C5.37917 9.8181 7.89609 5.35534 12.1239 3.27453L12.951 2.86253C17.9723 0.379157 23.8645 0.379157 28.8857 2.86253L29.7139 3.27453C33.9401 5.35665 36.4552 9.81901 36.0479 14.5127L34.5467 32.4392L35.0531 38.4461L39.3984 36.708ZM3.75609 41.4276L6.24169 42.4225V40.4873L3.09668 39.2292V40.4548C3.09524 40.8839 3.35693 41.27 3.75609 41.4276ZM32.45 32.4392L33.9596 14.3334C34.29 10.4977 32.2329 6.85223 28.7788 5.15209L27.9516 4.7401C23.5189 2.54685 18.3168 2.54685 13.884 4.7401L13.0559 5.15209C9.60199 6.85249 7.54542 10.4979 7.87604 14.3334L9.38669 32.4392L7.91902 50.0816C7.58133 54.1165 9.87181 57.9124 13.5989 59.4946L17.201 61.0315C19.5764 62.041 22.2604 62.041 24.6358 61.0315L28.2378 59.4946C31.9664 57.9158 34.2601 54.122 33.9261 50.0868L32.45 32.4392ZM38.0807 41.4276C38.4798 41.2701 38.7415 40.8839 38.7401 40.4548V39.2292L35.5951 40.4873V42.4225L38.0807 41.4276ZM29.5711 11.9338L27.5384 10.8047C23.4263 8.50375 18.4142 8.50375 14.3021 10.8047L12.2673 11.9338C11.1066 12.5819 10.4774 13.8888 10.6948 15.2004L11.6436 20.9075H30.1928L31.1436 15.2014C31.3614 13.8896 30.7323 12.582 29.5711 11.9338ZM29.0753 14.8565L28.4169 18.8108H13.4194L12.76 14.8555C12.6869 14.4178 12.8974 13.9816 13.2853 13.7663L15.318 12.6372C18.7977 10.6904 23.0387 10.6904 26.5184 12.6372L28.5511 13.7663C28.9375 13.9834 29.1469 14.419 29.0753 14.8565ZM31.2758 43.6008L30.2537 33.4739H11.5881L10.5712 43.6019C10.453 44.7629 10.9888 45.8937 11.9623 46.5372L12.2265 46.7123C17.4938 50.2206 24.3533 50.2206 29.6205 46.7123L29.8857 46.5361C30.8591 45.8926 31.3947 44.7617 31.2758 43.6008ZM28.7221 44.7886L28.4568 44.9647C23.8912 48.0059 17.9453 48.0059 13.3797 44.9647L13.1155 44.7896C12.7925 44.5746 12.6145 44.1988 12.6532 43.8126L13.4803 35.5706H28.3614L29.1886 43.8136C29.2254 44.1999 29.046 44.575 28.7221 44.7886ZM10.6069 50.8363L12.3514 49.6733L16.5446 55.9628L14.8002 57.1258L10.6069 50.8363ZM29.4901 49.6968L25.2948 55.9864L27.0392 57.15L31.2345 50.8604L29.4901 49.6968Z" fill="white"/>
<path d="M40.3765 36.8128L40.4887 36.6473L40.4886 36.6472L40.3765 36.8128ZM39.3984 36.708L39.4727 36.8937L39.4729 36.8936L39.3984 36.708ZM40.8367 40.4548H40.6367V40.4554L40.8367 40.4548ZM38.8617 43.3754L38.7878 43.1895L38.7874 43.1897L38.8617 43.3754ZM35.5772 44.689L35.503 44.5033L35.3656 44.5582L35.3779 44.7057L35.5772 44.689ZM36.0144 49.9076L36.2137 49.8909L36.2137 49.8909L36.0144 49.9076ZM29.0597 61.4225L28.9817 61.2383L28.9812 61.2385L29.0597 61.4225ZM25.4577 62.9604L25.5359 63.1445L25.5362 63.1443L25.4577 62.9604ZM16.3749 62.9604L16.2964 63.1443L16.2967 63.1445L16.3749 62.9604ZM12.7728 61.4225L12.8513 61.2385L12.8509 61.2384L12.7728 61.4225ZM5.82235 49.9076L5.62306 49.8908L5.62305 49.8909L5.82235 49.9076ZM6.26161 44.689L6.4609 44.7057L6.47332 44.5582L6.33587 44.5033L6.26161 44.689ZM2.97717 43.3754L3.05144 43.1897L3.05089 43.1895L2.97717 43.3754ZM1.00002 40.4548L1.20002 40.4554V40.4548H1.00002ZM1.00002 37.6809L0.800016 37.6803V37.6809H1.00002ZM1.07654 37.2909L1.26193 37.3659L1.26195 37.3659L1.07654 37.2909ZM2.44148 36.7122L2.36647 36.8976L2.3672 36.8979L2.44148 36.7122ZM6.78682 38.4503L6.71254 38.636L6.96357 38.7364L6.98612 38.467L6.78682 38.4503ZM7.29002 32.4392L7.48932 32.4559L7.49072 32.4392L7.48932 32.4225L7.29002 32.4392ZM5.78566 14.5127L5.98496 14.4959L5.98492 14.4954L5.78566 14.5127ZM12.1239 3.27453L12.2122 3.45397L12.2131 3.45355L12.1239 3.27453ZM12.951 2.86253L12.8624 2.68326L12.8619 2.68351L12.951 2.86253ZM28.8857 2.86253L28.9748 2.68346L28.9744 2.68326L28.8857 2.86253ZM29.7139 3.27453L29.6248 3.45359L29.6255 3.45393L29.7139 3.27453ZM36.0479 14.5127L35.8487 14.4954L35.8486 14.496L36.0479 14.5127ZM34.5467 32.4392L34.3474 32.4225L34.346 32.4392L34.3474 32.456L34.5467 32.4392ZM35.0531 38.4461L34.8538 38.4629L34.8765 38.7322L35.1273 38.6318L35.0531 38.4461ZM6.24169 42.4225L6.16737 42.6082L6.44169 42.718V42.4225H6.24169ZM3.75609 41.4276L3.83041 41.2419L3.82955 41.2416L3.75609 41.4276ZM6.24169 40.4873H6.44169V40.3518L6.31597 40.3016L6.24169 40.4873ZM3.09668 39.2292L3.17096 39.0436L2.89668 38.9338V39.2292H3.09668ZM3.09668 40.4548L3.29668 40.4554V40.4548H3.09668ZM33.9596 14.3334L33.7604 14.3162L33.7603 14.3168L33.9596 14.3334ZM32.45 32.4392L32.2507 32.4226L32.2493 32.4392L32.2507 32.4559L32.45 32.4392ZM28.7788 5.15209L28.6896 5.33112L28.6905 5.33153L28.7788 5.15209ZM27.9516 4.7401L28.0408 4.56107L28.0403 4.56084L27.9516 4.7401ZM13.884 4.7401L13.7954 4.56084L13.795 4.56103L13.884 4.7401ZM13.0559 5.15209L13.1442 5.33153L13.1449 5.33116L13.0559 5.15209ZM7.87604 14.3334L8.07535 14.3168L8.0753 14.3162L7.87604 14.3334ZM9.38669 32.4392L9.586 32.4558L9.58738 32.4392L9.586 32.4226L9.38669 32.4392ZM7.91902 50.0816L8.11832 50.0983L8.11833 50.0982L7.91902 50.0816ZM13.5989 59.4946L13.6774 59.3106L13.6771 59.3105L13.5989 59.4946ZM17.201 61.0315L17.1225 61.2154L17.1227 61.2155L17.201 61.0315ZM24.6358 61.0315L24.714 61.2155L24.7142 61.2154L24.6358 61.0315ZM28.2378 59.4946L28.1599 59.3104L28.1594 59.3106L28.2378 59.4946ZM33.9261 50.0868L34.1254 50.0703L34.1254 50.0702L33.9261 50.0868ZM38.7401 40.4548H38.5401V40.4554L38.7401 40.4548ZM38.0807 41.4276L38.0072 41.2416L38.0063 41.2419L38.0807 41.4276ZM38.7401 39.2292H38.9401V38.9338L38.6658 39.0436L38.7401 39.2292ZM35.5951 40.4873L35.5208 40.3016L35.3951 40.3518V40.4873H35.5951ZM35.5951 42.4225H35.3951V42.718L35.6694 42.6082L35.5951 42.4225ZM27.5384 10.8047L27.4407 10.9792L27.4413 10.9795L27.5384 10.8047ZM29.5711 11.9338L29.6686 11.7591L29.6682 11.7589L29.5711 11.9338ZM14.3021 10.8047L14.3992 10.9796L14.3998 10.9792L14.3021 10.8047ZM12.2673 11.9338L12.1703 11.7589L12.1698 11.7591L12.2673 11.9338ZM10.6948 15.2004L10.4975 15.2331L10.4975 15.2332L10.6948 15.2004ZM11.6436 20.9075L11.4463 20.9403L11.4741 21.1075H11.6436V20.9075ZM30.1928 20.9075V21.1075H30.3622L30.3901 20.9404L30.1928 20.9075ZM31.1436 15.2014L31.3409 15.2343L31.3409 15.2342L31.1436 15.2014ZM28.4169 18.8108V19.0108H28.5864L28.6142 18.8437L28.4169 18.8108ZM29.0753 14.8565L29.2726 14.8894L29.2726 14.8889L29.0753 14.8565ZM13.4194 18.8108L13.2222 18.8437L13.25 19.0108H13.4194V18.8108ZM12.76 14.8555L12.9573 14.8226L12.9573 14.8225L12.76 14.8555ZM13.2853 13.7663L13.3823 13.9411L13.3824 13.9411L13.2853 13.7663ZM15.318 12.6372L15.4151 12.812L15.4156 12.8117L15.318 12.6372ZM26.5184 12.6372L26.4207 12.8117L26.4213 12.812L26.5184 12.6372ZM28.5511 13.7663L28.6491 13.5919L28.6482 13.5914L28.5511 13.7663ZM30.2537 33.4739L30.4527 33.4538L30.4345 33.2739H30.2537V33.4739ZM31.2758 43.6008L31.0768 43.6209L31.0769 43.6212L31.2758 43.6008ZM11.5881 33.4739V33.2739H11.4072L11.3891 33.4539L11.5881 33.4739ZM10.5712 43.6019L10.7702 43.6221L10.7702 43.6218L10.5712 43.6019ZM11.9623 46.5372L12.0728 46.3705L12.0726 46.3704L11.9623 46.5372ZM12.2265 46.7123L12.3374 46.5458L12.337 46.5456L12.2265 46.7123ZM29.6205 46.7123L29.5099 46.5457L29.5096 46.5458L29.6205 46.7123ZM29.8857 46.5361L29.7754 46.3693L29.7751 46.3695L29.8857 46.5361ZM28.4568 44.9647L28.3462 44.7981L28.346 44.7982L28.4568 44.9647ZM28.7221 44.7886L28.612 44.6216L28.6114 44.622L28.7221 44.7886ZM13.3797 44.9647L13.4906 44.7982L13.4902 44.798L13.3797 44.9647ZM13.1155 44.7896L13.0047 44.9561L13.005 44.9563L13.1155 44.7896ZM12.6532 43.8126L12.4542 43.7926L12.4542 43.7927L12.6532 43.8126ZM13.4803 35.5706V35.3706H13.2994L13.2813 35.5506L13.4803 35.5706ZM28.3614 35.5706L28.5604 35.5506L28.5424 35.3706H28.3614V35.5706ZM29.1886 43.8136L29.3877 43.7946L29.3876 43.7937L29.1886 43.8136ZM12.3514 49.6733L12.5178 49.5623L12.4068 49.3959L12.2404 49.5069L12.3514 49.6733ZM10.6069 50.8363L10.496 50.6699L10.3296 50.7808L10.4405 50.9472L10.6069 50.8363ZM16.5446 55.9628L16.6556 56.1292L16.822 56.0183L16.711 55.8519L16.5446 55.9628ZM14.8002 57.1258L14.6338 57.2368L14.7447 57.4032L14.9111 57.2922L14.8002 57.1258ZM25.2948 55.9864L25.1284 55.8754L25.0174 56.0418L25.1838 56.1528L25.2948 55.9864ZM29.4901 49.6968L29.601 49.5305L29.4347 49.4195L29.3237 49.5859L29.4901 49.6968ZM27.0392 57.15L26.9282 57.3164L27.0946 57.4273L27.2056 57.261L27.0392 57.15ZM31.2345 50.8604L31.4009 50.9714L31.5119 50.805L31.3455 50.694L31.2345 50.8604ZM40.4886 36.6472C40.1452 36.4147 39.7087 36.3679 39.3239 36.5224L39.4729 36.8936C39.7344 36.7886 40.031 36.8204 40.2644 36.9785L40.4886 36.6472ZM41.0367 37.6809C41.0367 37.2668 40.8315 36.8796 40.4887 36.6473L40.2643 36.9784C40.4973 37.1363 40.6367 37.3994 40.6367 37.6809H41.0367ZM41.0367 40.4548V37.6809H40.6367V40.4548H41.0367ZM38.9355 43.5613C40.2079 43.0558 41.0413 41.8232 41.0367 40.4541L40.6367 40.4554C40.6408 41.6602 39.9074 42.7447 38.7878 43.1895L38.9355 43.5613ZM35.6515 44.8747L38.9359 43.5611L38.7874 43.1897L35.503 44.5033L35.6515 44.8747ZM36.2137 49.8909L35.7765 44.6723L35.3779 44.7057L35.8151 49.9243L36.2137 49.8909ZM29.1378 61.6066C33.7795 59.6399 36.6334 54.9147 36.2137 49.8909L35.8151 49.9242C36.2204 54.7758 33.4644 59.339 28.9817 61.2383L29.1378 61.6066ZM25.5362 63.1443L29.1383 61.6064L28.9812 61.2385L25.3791 62.7765L25.5362 63.1443ZM16.2967 63.1445C19.2487 64.3985 22.5838 64.3985 25.5359 63.1445L25.3795 62.7763C22.5274 63.9879 19.3052 63.9879 16.4531 62.7763L16.2967 63.1445ZM12.6943 61.6064L16.2964 63.1443L16.4534 62.7765L12.8513 61.2385L12.6943 61.6064ZM5.62305 49.8909C5.20267 54.9136 8.05467 59.6384 12.6947 61.6066L12.8509 61.2384C8.36992 59.3377 5.61569 54.7748 6.02166 49.9243L5.62305 49.8909ZM6.06231 44.6722L5.62306 49.8908L6.02165 49.9244L6.4609 44.7057L6.06231 44.6722ZM2.90291 43.5611L6.18734 44.8747L6.33587 44.5033L3.05144 43.1897L2.90291 43.5611ZM0.800017 40.4541C0.795695 41.8238 1.63022 43.0565 2.90346 43.5613L3.05089 43.1895C1.93052 42.7453 1.19621 41.6606 1.20001 40.4554L0.800017 40.4541ZM0.800016 37.6809V40.4548H1.20002V37.6809H0.800016ZM0.891161 37.2158C0.831383 37.3635 0.800485 37.5211 0.800017 37.6803L1.20001 37.6814C1.20033 37.5733 1.22133 37.4662 1.26193 37.3659L0.891161 37.2158ZM2.51648 36.5268C1.87733 36.2682 1.1497 36.5767 0.89114 37.2159L1.26195 37.3659C1.43766 36.9315 1.93213 36.7219 2.36647 36.8976L2.51648 36.5268ZM6.8611 38.2646L2.51575 36.5265L2.3672 36.8979L6.71254 38.636L6.8611 38.2646ZM7.09072 32.4225L6.58752 38.4337L6.98612 38.467L7.48932 32.4559L7.09072 32.4225ZM5.58636 14.5294L7.09072 32.4559L7.48932 32.4225L5.98496 14.4959L5.58636 14.5294ZM12.0356 3.09508C7.73377 5.21232 5.1728 9.75319 5.58641 14.5299L5.98492 14.4954C5.58554 9.88301 8.05841 5.49836 12.2122 3.45397L12.0356 3.09508ZM12.8619 2.68351L12.0347 3.0955L12.2131 3.45355L13.0402 3.04155L12.8619 2.68351ZM28.9744 2.68326C23.8972 0.172248 17.9395 0.172248 12.8624 2.68326L13.0397 3.0418C18.0051 0.586066 23.8317 0.586066 28.797 3.0418L28.9744 2.68326ZM29.803 3.09546L28.9748 2.68346L28.7966 3.0416L29.6248 3.45359L29.803 3.09546ZM36.2472 14.53C36.6616 9.75415 34.1025 5.21368 29.8023 3.09512L29.6255 3.45393C33.7778 5.49961 36.2488 9.88388 35.8487 14.4954L36.2472 14.53ZM34.746 32.4559L36.2472 14.5294L35.8486 14.496L34.3474 32.4225L34.746 32.4559ZM35.2524 38.4293L34.746 32.4224L34.3474 32.456L34.8538 38.4629L35.2524 38.4293ZM39.3241 36.5223L34.9788 38.2604L35.1273 38.6318L39.4727 36.8937L39.3241 36.5223ZM6.31601 42.2368L3.83041 41.2419L3.68177 41.6133L6.16737 42.6082L6.31601 42.2368ZM6.04169 40.4873V42.4225H6.44169V40.4873H6.04169ZM3.02241 39.4149L6.16741 40.6729L6.31597 40.3016L3.17096 39.0436L3.02241 39.4149ZM3.29668 40.4548V39.2292H2.89668V40.4548H3.29668ZM3.82955 41.2416C3.50698 41.1142 3.29552 40.8022 3.29668 40.4554L2.89669 40.4541C2.89497 40.9656 3.20689 41.4257 3.68262 41.6136L3.82955 41.2416ZM33.7603 14.3168L32.2507 32.4226L32.6494 32.4558L34.159 14.35L33.7603 14.3168ZM28.6905 5.33153C32.0706 6.99526 34.0837 10.5627 33.7604 14.3162L34.1589 14.3506C34.4963 10.4327 32.3952 6.70919 28.8671 4.97265L28.6905 5.33153ZM27.8625 4.91912L28.6896 5.33111L28.8679 4.97307L28.0408 4.56108L27.8625 4.91912ZM13.9727 4.91935C18.3496 2.75376 23.4861 2.75376 27.8629 4.91935L28.0403 4.56084C23.5517 2.33994 18.284 2.33994 13.7954 4.56084L13.9727 4.91935ZM13.1449 5.33116L13.9731 4.91916L13.795 4.56103L12.9668 4.97303L13.1449 5.33116ZM8.0753 14.3162C7.75176 10.5629 9.76429 6.99551 13.1442 5.33153L12.9675 4.97266C9.43969 6.70947 7.33908 10.433 7.67678 14.3506L8.0753 14.3162ZM9.586 32.4226L8.07535 14.3168L7.67673 14.35L9.18738 32.4558L9.586 32.4226ZM8.11833 50.0982L9.586 32.4558L9.18738 32.4226L7.71971 50.065L8.11833 50.0982ZM13.6771 59.3105C10.0295 57.7621 7.78783 54.0471 8.11832 50.0983L7.71972 50.0649C7.37482 54.1859 9.71416 58.0628 13.5207 59.6787L13.6771 59.3105ZM17.2795 60.8475L13.6774 59.3106L13.5204 59.6786L17.1225 61.2154L17.2795 60.8475ZM24.5575 60.8474C22.2321 61.8357 19.6046 61.8357 17.2792 60.8474L17.1227 61.2155C19.5481 62.2463 22.2886 62.2463 24.714 61.2155L24.5575 60.8474ZM28.1594 59.3106L24.5573 60.8475L24.7142 61.2154L28.3163 59.6786L28.1594 59.3106ZM33.7268 50.1033C34.0537 54.0525 31.8089 57.7653 28.1599 59.3104L28.3158 59.6788C32.1239 58.0663 34.4666 54.1916 34.1254 50.0703L33.7268 50.1033ZM32.2507 32.4559L33.7268 50.1035L34.1254 50.0702L32.6493 32.4225L32.2507 32.4559ZM38.5401 40.4554C38.5412 40.8023 38.3297 41.1143 38.0072 41.2416L38.1541 41.6136C38.6299 41.4259 38.9418 40.9656 38.9401 40.4541L38.5401 40.4554ZM38.5401 39.2292V40.4548H38.9401V39.2292H38.5401ZM35.6693 40.6729L38.8143 39.4149L38.6658 39.0436L35.5208 40.3016L35.6693 40.6729ZM35.7951 42.4225V40.4873H35.3951V42.4225H35.7951ZM38.0063 41.2419L35.5207 42.2368L35.6694 42.6082L38.155 41.6133L38.0063 41.2419ZM27.4413 10.9795L29.474 12.1086L29.6682 11.7589L27.6355 10.6299L27.4413 10.9795ZM14.3998 10.9792C18.4512 8.71223 23.3893 8.71223 27.4407 10.9792L27.6361 10.6302C23.4633 8.29526 18.3772 8.29526 14.2045 10.6302L14.3998 10.9792ZM12.3644 12.1086L14.3992 10.9796L14.2051 10.6298L12.1703 11.7589L12.3644 12.1086ZM10.8921 15.1677C10.6885 13.9393 11.2777 12.7154 12.3648 12.1084L12.1698 11.7591C10.9354 12.4484 10.2663 13.8382 10.4975 15.2331L10.8921 15.1677ZM11.8409 20.8747L10.8921 15.1676L10.4975 15.2332L11.4463 20.9403L11.8409 20.8747ZM30.1928 20.7075H11.6436V21.1075H30.1928V20.7075ZM30.9464 15.1686L29.9955 20.8746L30.3901 20.9404L31.3409 15.2343L30.9464 15.1686ZM29.4736 12.1084C30.5611 12.7155 31.1503 13.9401 30.9463 15.1687L31.3409 15.2342C31.5725 13.8391 30.9035 12.4486 29.6686 11.7591L29.4736 12.1084ZM28.6142 18.8437L29.2726 14.8894L28.878 14.8237L28.2196 18.778L28.6142 18.8437ZM13.4194 19.0108H28.4169V18.6108H13.4194V19.0108ZM12.5628 14.8884L13.2222 18.8437L13.6167 18.778L12.9573 14.8226L12.5628 14.8884ZM13.1882 13.5914C12.7263 13.8478 12.4757 14.3672 12.5628 14.8884L12.9573 14.8225C12.8981 14.4684 13.0684 14.1154 13.3823 13.9411L13.1882 13.5914ZM15.2209 12.4624L13.1881 13.5914L13.3824 13.9411L15.4151 12.812L15.2209 12.4624ZM26.616 12.4627C23.0757 10.482 18.7607 10.482 15.2203 12.4627L15.4156 12.8117C18.8346 10.8989 23.0017 10.8989 26.4207 12.8117L26.616 12.4627ZM28.6482 13.5914L26.6155 12.4624L26.4213 12.812L28.454 13.9411L28.6482 13.5914ZM29.2726 14.8889C29.3579 14.3684 29.1088 13.8502 28.6491 13.5919L28.4531 13.9406C28.7663 14.1166 28.936 14.4695 28.8779 14.8242L29.2726 14.8889ZM30.0547 33.494L31.0768 43.6209L31.4748 43.5807L30.4527 33.4538L30.0547 33.494ZM11.5881 33.6739H30.2537V33.2739H11.5881V33.6739ZM10.7702 43.6218L11.7871 33.4939L11.3891 33.4539L10.3722 43.5819L10.7702 43.6218ZM12.0726 46.3704C11.1612 45.7678 10.6595 44.7092 10.7702 43.6221L10.3722 43.5816C10.2465 44.8166 10.8165 46.0195 11.8521 46.704L12.0726 46.3704ZM12.337 46.5456L12.0728 46.3705L11.8519 46.7039L12.116 46.879L12.337 46.5456ZM29.5096 46.5458C24.3095 50.0095 17.5375 50.0095 12.3374 46.5458L12.1157 46.8787C17.45 50.4318 24.397 50.4318 29.7314 46.8787L29.5096 46.5458ZM29.7751 46.3695L29.5099 46.5457L29.7311 46.8789L29.9964 46.7028L29.7751 46.3695ZM31.0769 43.6212C31.1881 44.708 30.6867 45.7668 29.7754 46.3693L29.996 46.703C31.0315 46.0184 31.6012 44.8154 31.4748 43.5804L31.0769 43.6212ZM28.5675 45.1313L28.8327 44.9552L28.6114 44.622L28.3462 44.7981L28.5675 45.1313ZM13.2688 45.1311C17.9016 48.2171 23.9349 48.2171 28.5677 45.1311L28.346 44.7982C23.8475 47.7947 17.989 47.7947 13.4906 44.7982L13.2688 45.1311ZM13.005 44.9563L13.2692 45.1314L13.4902 44.798L13.226 44.6229L13.005 44.9563ZM12.4542 43.7927C12.4082 44.2526 12.6201 44.7001 13.0047 44.9561L13.2263 44.6231C12.9649 44.4491 12.8209 44.145 12.8522 43.8325L12.4542 43.7927ZM13.2813 35.5506L12.4542 43.7926L12.8522 43.8325L13.6793 35.5905L13.2813 35.5506ZM28.3614 35.3706H13.4803V35.7706H28.3614V35.3706ZM29.3876 43.7937L28.5604 35.5506L28.1624 35.5905L28.9896 43.8336L29.3876 43.7937ZM28.8322 44.9555C29.2179 44.7012 29.4315 44.2546 29.3877 43.7946L28.9895 43.8326C29.0193 44.1453 28.8741 44.4488 28.612 44.6216L28.8322 44.9555ZM12.2404 49.5069L10.496 50.6699L10.7179 51.0027L12.4623 49.8397L12.2404 49.5069ZM16.711 55.8519L12.5178 49.5623L12.1849 49.7842L16.3782 56.0737L16.711 55.8519ZM14.9111 57.2922L16.6556 56.1292L16.4337 55.7964L14.6893 56.9594L14.9111 57.2922ZM10.4405 50.9472L14.6338 57.2368L14.9666 57.0149L10.7733 50.7253L10.4405 50.9472ZM25.4612 56.0974L29.6564 49.8078L29.3237 49.5859L25.1284 55.8754L25.4612 56.0974ZM27.1502 56.9836L25.4058 55.82L25.1838 56.1528L26.9282 57.3164L27.1502 56.9836ZM31.0681 50.7495L26.8728 57.039L27.2056 57.261L31.4009 50.9714L31.0681 50.7495ZM29.3791 49.8632L31.1235 51.0268L31.3455 50.694L29.601 49.5305L29.3791 49.8632Z" fill="white" mask="url(#path-1-outside-1)"/>
</svg>
